<?xml version="1.0" encoding="utf-8"?>
<!-- Generator: Adobe Illustrator 25.2.0, SVG Export Plug-In . SVG Version: 6.00 Build 0)  -->
<svg version="1.1" id="레이어_1" xmlns="http://www.w3.org/2000/svg" xmlns:xlink="http://www.w3.org/1999/xlink" x="0px"
	 y="0px" viewBox="0 0 512 512" style="enable-background:new 0 0 512 512;" xml:space="preserve">
<style type="text/css">
	.st0{fill:#E7D5C1;}
	.st1{fill:#364701;}
	.st2{fill:#FFFFFF;}
</style>
<g>
	<rect x="0" y="0" class="st1" width="512" height="512"/>
	<g>
		<path class="st0" d="M284.63,141.44c0,46.76-40.54,64.74-76.18,64.74h-29.43v61.47c0.33,23.87,1.96,35.97,20.6,35.97v1.63h-91.88
			v-1.63c18.64,0,20.6-12.1,20.6-35.97V113.97c0-24.19-1.96-35.97-20.6-35.97v-1.64h103.98C243.43,76.37,284.63,94.68,284.63,141.44
			z M230.68,141.44c0-30.41-7.85-63.43-26.81-63.43h-4.25c-18.64,0-20.27,11.77-20.6,35.97v90.57c9.15,0,18.64,0,24.85,0
			C228.39,204.54,230.68,171.52,230.68,141.44z"/>
		<path class="st0" d="M425.54,239.29v1.49c-19.06,3.28-33.06,16.38-44.68,46.17c-10.13,25.91-57.19,160.84-57.19,160.84h-6.55
			c0,0-64.93-148.03-72.68-167.1c-7.74-19.06-16.08-39.91-34.85-39.91v-1.49h93.82v1.49c-14.3,0-16.38,5.66-8.34,27.4
			c7.74,20.55,44.38,106.04,49.15,117.06c13.7-38.72,28.89-82.21,30.68-87.57c9.53-25.32,7.15-56.89-12.81-56.89v-1.49H425.54z"/>
	</g>
</g>
</svg>
