<svg id="레이어_1" data-name="레이어 1" xmlns="http://www.w3.org/2000/svg" viewBox="0 0 500 350"><defs><style>.cls-1{fill:#364701;}</style></defs><path class="cls-1" d="M157.51,57.93c0,16.9-14.66,23.4-27.54,23.4H119.33v22.23c.12,8.62.71,13,7.45,13v.59H93.57v-.59c6.73,0,7.44-4.38,7.44-13V48c0-8.74-.71-13-7.44-13v-.59h37.58C142.62,34.41,157.51,41,157.51,57.93Zm-19.5,0c0-11-2.84-22.93-9.69-22.93h-1.54c-6.74,0-7.33,4.26-7.45,13V80.74h9C137.18,80.74,138,68.81,138,57.93Z"/><path class="cls-1" d="M195.09,103.56c0,8.74.71,13,7.45,13v.59H169.33v-.59c6.73,0,7.32-4.26,7.44-13V48c-.12-8.62-.71-13-7.44-13v-.59h33.21V35c-6.74,0-7.45,4.38-7.45,13Z"/><path class="cls-1" d="M301.11,34.41V35c-8,0-14.54,8.28-14.54,22.34v59.81h-3.43c-2.6-3.08-52.95-67.61-54.72-70.21V94.22c0,14.06,6.5,22.34,14.54,22.34v.59H213.17v-.59c8,0,14.66-8.28,14.66-22.34V46.11C223.81,40.44,219.08,35,214,35v-.59h27.54L286,92.33v-35C286,43.28,279.36,35,271.32,35v-.59Z"/><path class="cls-1" d="M360.32,118.21c-25.29,2-48.58-13.12-50.7-38.88s15.83-43.85,41-46,48.58,12.76,50.47,37.58C403.11,97.76,385.5,116.08,360.32,118.21Zm19.86-44.68c-1.66-23.52-15.6-40.77-29.67-39.59-13.71,1.42-22.22,21-19.86,43.73,2.37,22.93,15.61,41,29.67,40C374,116.08,381.83,97.17,380.18,73.53Z"/><path class="cls-1" d="M101.37,148.64v.59c-7.56,1.3-13.12,6.5-17.73,18.32C79.62,177.83,61,231.38,61,231.38h-2.6s-25.77-58.75-28.84-66.31-6.38-15.84-13.83-15.84v-.59H52.91v.59c-5.67,0-6.5,2.25-3.31,10.87,3.08,8.16,17.61,42.08,19.51,46.45,5.43-15.36,11.46-32.62,12.17-34.74,3.78-10.05,2.84-22.58-5.08-22.58v-.59Z"/><path class="cls-1" d="M175.48,230.79v.59h-35v-.59c5.79,0,6.62-2.25,3.31-10.88-1.18-3.31-4.25-11.35-7.56-20.09H113.43c-1.78,4.49-3,7.56-3.31,8.39-3.67,9.93-2.72,22.58,5.2,22.58v.59H90.14v-.59c7.57-1.42,13.12-6.62,17.73-18.33l24.94-63.82h2.6s23.17,58.62,26.24,66.19S168,230.79,175.48,230.79ZM136,199.35c-5-12.89-10.28-26.95-11.11-29-3.9,9.93-8.27,21.27-11.35,29Z"/><path class="cls-1" d="M247.1,210.46l-5,20.92H183.75v-.59c6.73,0,7.44-4.26,7.44-13V162.23c0-8.63-.71-13-7.44-13v-.59H217v.59c-6.74,0-7.33,4.37-7.45,13v55.55c.12,8.75.71,13,7.45,13h6.62c11.93,0,19.5-12.65,22.93-20.33Z"/><path class="cls-1" d="M319.9,210.46l-5,20.92H256.55v-.59c6.73,0,7.44-4.26,7.44-13V162.23c0-8.63-.71-13-7.44-13v-.59h33.21v.59c-6.74,0-7.33,4.37-7.45,13v55.55c.12,8.75.71,13,7.45,13h6.62c11.94,0,19.5-12.65,22.93-20.33Z"/><path class="cls-1" d="M392.7,210.46l-4.84,20.92H329.35v-.59c6.74,0,7.45-4.26,7.45-13V162.23c0-8.63-.71-13-7.45-13v-.59h54.72l4,17.14h-.59c-3.43-7.68-10.16-16.55-22-16.55h-3c-6.73,0-7.32,4.37-7.44,13v27.66h1.77c9.1,0,16.55-7.21,16.55-15.25H374v31h-.59c0-8-7.45-15.25-16.55-15.25h-1.77v27.42c.12,8.75.71,13,7.44,13h6.62c11.94,0,19.5-12.65,22.93-20.33Z"/><path class="cls-1" d="M479.1,148.64v.59c-7.56,1.3-14.54,7.92-18.32,18.32-4.37,11.7-10.64,28-10.64,28v22.22c.12,8.63.71,13,7.45,13v.59H424.38v-.59c6.73,0,7.44-4.38,7.44-13V197.22c-5.08-9.46-13-24-15.72-29.43-3.78-7.21-10.75-18.56-18.08-18.56v-.59h34.39v.59c-4.61,0-3.07,6.5-1.18,10.28,2.48,4.85,16.79,32.51,18.44,35.82.95-2.6,7.21-19,8.75-23.52,3.9-11,2.83-22.58-5.09-22.58v-.59Z"/><path class="cls-1" d="M29.19,309.71a5.87,5.87,0,0,1-.36,2.13,4.25,4.25,0,0,1-1,1.53,4.16,4.16,0,0,1-1.37.91,4.4,4.4,0,0,1-1.62.3H22.61v7.18H20.47V305h4.25a5.7,5.7,0,0,1,1.56.22,3.75,3.75,0,0,1,1.43.77,4.09,4.09,0,0,1,1.06,1.46A5.36,5.36,0,0,1,29.19,309.71Zm-2.13,0a3,3,0,0,0-.71-2.21,2.48,2.48,0,0,0-1.84-.7h-1.9v6h1.9a2.38,2.38,0,0,0,1.84-.77A3.31,3.31,0,0,0,27.06,309.73Z"/><path class="cls-1" d="M48.06,321.76l-2.85-7.48H43.27v7.48H41.19V305h4.34a5.88,5.88,0,0,1,1.75.25,3.78,3.78,0,0,1,1.43.79,3.68,3.68,0,0,1,1,1.42,5.55,5.55,0,0,1,.35,2.11,5.24,5.24,0,0,1-.26,1.77,4.37,4.37,0,0,1-.68,1.29,3.43,3.43,0,0,1-.92.84,3.11,3.11,0,0,1-1,.41l3.15,7.88Zm-.15-12.11a3.69,3.69,0,0,0-.23-1.4,2.44,2.44,0,0,0-.62-.88,2.05,2.05,0,0,0-.87-.47,4.36,4.36,0,0,0-1-.13H43.27v5.85h2a2.58,2.58,0,0,0,1.94-.77A3.08,3.08,0,0,0,47.91,309.65Z"/><path class="cls-1" d="M62.31,321.76V305h7v1.89h-5v5.28H69V314H64.37v5.89H69.6v1.92Z"/><path class="cls-1" d="M93.32,321.76V307.88h-.07l-3.74,13.88H87.59L83.9,307.88h-.07v13.88h-2V305H85l3.59,13.3h.09L92.18,305h3.27v16.76Z"/><path class="cls-1" d="M108.59,321.76V305h2.13v16.76Z"/><path class="cls-1" d="M133.36,318.4a5.57,5.57,0,0,1-.86,2,4.18,4.18,0,0,1-1.55,1.33,5.21,5.21,0,0,1-2.35.48,5.06,5.06,0,0,1-2.33-.48,4.2,4.2,0,0,1-1.53-1.33,5.2,5.2,0,0,1-.84-2,10.69,10.69,0,0,1-.25-2.39V305h2.13v10.79a9.85,9.85,0,0,0,.13,1.65,4.86,4.86,0,0,0,.45,1.41,2.6,2.6,0,0,0,.88,1,2.55,2.55,0,0,0,1.41.37,2.48,2.48,0,0,0,1.39-.37,2.75,2.75,0,0,0,.87-1,4.86,4.86,0,0,0,.45-1.41,11,11,0,0,0,.13-1.65V305h2.13v11A10.68,10.68,0,0,1,133.36,318.4Z"/><path class="cls-1" d="M158,321.76V307.88h-.07l-3.74,13.88h-1.92l-3.69-13.88h-.07v13.88h-2V305h3.13l3.58,13.3h.1l3.51-13.3h3.27v16.76Z"/><path class="cls-1" d="M194.82,317.31a5.55,5.55,0,0,1-.36,2.05,4.59,4.59,0,0,1-1,1.52,4.12,4.12,0,0,1-1.43.95,4.77,4.77,0,0,1-1.78.33,5.73,5.73,0,0,1-2.42-.53,5,5,0,0,1-1.84-1.41l1.26-1.54a4,4,0,0,0,3,1.52,2.37,2.37,0,0,0,1.76-.71,2.89,2.89,0,0,0,.68-2.06,2.81,2.81,0,0,0-.21-1.13,3,3,0,0,0-.59-.87,5.08,5.08,0,0,0-.87-.71,8.77,8.77,0,0,0-1.05-.61,10.08,10.08,0,0,1-1.29-.74,6.18,6.18,0,0,1-1.08-1,4.31,4.31,0,0,1-.74-1.29,5,5,0,0,1-.28-1.77,5.43,5.43,0,0,1,.38-2.1,4.5,4.5,0,0,1,1-1.5,4,4,0,0,1,1.43-.87,4.89,4.89,0,0,1,1.64-.29,5.51,5.51,0,0,1,2.16.41,4.05,4.05,0,0,1,1.6,1.2l-1.28,1.52a2.86,2.86,0,0,0-2.41-1.18,2.73,2.73,0,0,0-.89.15,2.08,2.08,0,0,0-.79.5,2.4,2.4,0,0,0-.57.86,3.19,3.19,0,0,0-.22,1.26,2.67,2.67,0,0,0,.21,1.1,3,3,0,0,0,.54.83,4.69,4.69,0,0,0,.79.66,9.05,9.05,0,0,0,1,.55,14.25,14.25,0,0,1,1.31.75,6.35,6.35,0,0,1,1.16,1,4.91,4.91,0,0,1,.84,1.34A4.69,4.69,0,0,1,194.82,317.31Z"/><path class="cls-1" d="M216.6,318.4a5.57,5.57,0,0,1-.86,2,4.18,4.18,0,0,1-1.55,1.33,5.21,5.21,0,0,1-2.35.48,5.06,5.06,0,0,1-2.33-.48,4.2,4.2,0,0,1-1.53-1.33,5.2,5.2,0,0,1-.84-2,10.69,10.69,0,0,1-.25-2.39V305H209v10.79a9.85,9.85,0,0,0,.13,1.65,4.86,4.86,0,0,0,.45,1.41,2.6,2.6,0,0,0,.88,1,2.55,2.55,0,0,0,1.41.37,2.48,2.48,0,0,0,1.39-.37,2.66,2.66,0,0,0,.87-1,4.86,4.86,0,0,0,.45-1.41,11,11,0,0,0,.13-1.65V305h2.13v11A10.68,10.68,0,0,1,216.6,318.4Z"/><path class="cls-1" d="M236,313a3.2,3.2,0,0,1,.95.38,3.3,3.3,0,0,1,.94.79,4.23,4.23,0,0,1,.71,1.26,4.92,4.92,0,0,1,.28,1.76,5,5,0,0,1-.42,2.18,4.11,4.11,0,0,1-2.57,2.2,5.43,5.43,0,0,1-1.56.24h-4.54V305h4a7.42,7.42,0,0,1,1.5.17,3.94,3.94,0,0,1,1.46.66,3.68,3.68,0,0,1,1.09,1.27,4.41,4.41,0,0,1,.42,2,4.79,4.79,0,0,1-.19,1.44,3.48,3.48,0,0,1-.51,1.08,3,3,0,0,1-.73.77,3.31,3.31,0,0,1-.86.47Zm.3-3.49a3.13,3.13,0,0,0-.23-1.27,2.41,2.41,0,0,0-.62-.83,2.18,2.18,0,0,0-.86-.46,4.24,4.24,0,0,0-1-.13H231.8v5.42h1.82a3.3,3.3,0,0,0,1-.15,2.4,2.4,0,0,0,1.48-1.32A3.19,3.19,0,0,0,236.29,309.46Zm.45,7.55a3.59,3.59,0,0,0-.27-1.46,2.64,2.64,0,0,0-.7-1,2.54,2.54,0,0,0-1-.54,3.48,3.48,0,0,0-1.05-.16h-2V320h2.06a3.5,3.5,0,0,0,1.12-.18,2.41,2.41,0,0,0,.92-.53,2.49,2.49,0,0,0,.62-.91A3.64,3.64,0,0,0,236.74,317Z"/><path class="cls-1" d="M260.56,318.4a5.56,5.56,0,0,1-.85,2,4.26,4.26,0,0,1-1.55,1.33,5.25,5.25,0,0,1-2.36.48,5.06,5.06,0,0,1-2.33-.48,4.37,4.37,0,0,1-1.53-1.33,5.55,5.55,0,0,1-.84-2,11.31,11.31,0,0,1-.25-2.39V305H253v10.79a9.84,9.84,0,0,0,.14,1.65,4.57,4.57,0,0,0,.44,1.41,2.69,2.69,0,0,0,.88,1,2.55,2.55,0,0,0,1.41.37,2.51,2.51,0,0,0,1.4-.37,2.64,2.64,0,0,0,.86-1,4.86,4.86,0,0,0,.45-1.41,9.85,9.85,0,0,0,.13-1.65V305h2.13v11A10.68,10.68,0,0,1,260.56,318.4Z"/><path class="cls-1" d="M280.61,321.76l-2.84-7.48h-1.94v7.48h-2.08V305h4.34a5.88,5.88,0,0,1,1.75.25,3.67,3.67,0,0,1,2.41,2.21,5.75,5.75,0,0,1,.35,2.11,5.5,5.5,0,0,1-.26,1.77,4.37,4.37,0,0,1-.68,1.29,3.43,3.43,0,0,1-.92.84,3.11,3.11,0,0,1-1,.41l3.15,7.88Zm-.14-12.11a3.49,3.49,0,0,0-.24-1.4,2.31,2.31,0,0,0-.61-.88,2.09,2.09,0,0,0-.88-.47,4.2,4.2,0,0,0-1-.13h-1.92v5.85h2a2.58,2.58,0,0,0,1.94-.77A3.08,3.08,0,0,0,280.47,309.65Z"/><path class="cls-1" d="M301.07,313a3.35,3.35,0,0,1,1,.38,3.27,3.27,0,0,1,.93.79,4.23,4.23,0,0,1,.71,1.26,4.92,4.92,0,0,1,.29,1.76,5,5,0,0,1-.43,2.18,4.27,4.27,0,0,1-1.09,1.42,4.35,4.35,0,0,1-1.47.78,5.5,5.5,0,0,1-1.57.24h-4.53V305h4a7.42,7.42,0,0,1,1.5.17,3.94,3.94,0,0,1,1.46.66,3.68,3.68,0,0,1,1.09,1.27,4.41,4.41,0,0,1,.42,2,5.15,5.15,0,0,1-.18,1.44,4,4,0,0,1-.51,1.08,3.2,3.2,0,0,1-.74.77,3.15,3.15,0,0,1-.86.47Zm.31-3.49a3,3,0,0,0-.24-1.27,2.29,2.29,0,0,0-.62-.83,2.18,2.18,0,0,0-.86-.46,4.17,4.17,0,0,0-1-.13h-1.77v5.42h1.82a3.2,3.2,0,0,0,1-.15,2.35,2.35,0,0,0,.86-.48,2.25,2.25,0,0,0,.62-.84A3,3,0,0,0,301.38,309.46Zm.45,7.55a3.59,3.59,0,0,0-.28-1.46,2.64,2.64,0,0,0-.7-1,2.58,2.58,0,0,0-1-.54,3.59,3.59,0,0,0-1.06-.16h-2V320h2.06a3.46,3.46,0,0,0,1.12-.18,2.36,2.36,0,0,0,1.54-1.44A3.63,3.63,0,0,0,301.83,317Z"/><path class="cls-1" d="M323.44,321.76l-.95-3.93h-4.85l-1,3.93h-2.15L318.73,305h2.82l4.12,16.76ZM320.15,307h-.09l-2.14,9.16h4.29Z"/><path class="cls-1" d="M344.56,321.76l-5.35-13h-.07v13h-2V305h2.56L345,318h.07V305h2v16.76Z"/><path class="cls-1" d="M382.15,321.76V314h-5.84v7.74h-2.13V305h2.13v7.12h5.84V305h2.14v16.76Z"/><path class="cls-1" d="M408.2,313.35a15.37,15.37,0,0,1-.39,3.59,8.9,8.9,0,0,1-1.14,2.78,5.52,5.52,0,0,1-1.8,1.8,4.49,4.49,0,0,1-2.4.64,4.58,4.58,0,0,1-2.42-.64,5.46,5.46,0,0,1-1.81-1.8,8.9,8.9,0,0,1-1.13-2.78,15.35,15.35,0,0,1-.4-3.59,15.86,15.86,0,0,1,.38-3.58,9,9,0,0,1,1.12-2.77,5.3,5.3,0,0,1,1.81-1.78,4.75,4.75,0,0,1,2.45-.63,4.57,4.57,0,0,1,2.4.63,5.55,5.55,0,0,1,1.8,1.78,8.74,8.74,0,0,1,1.14,2.77A15.28,15.28,0,0,1,408.2,313.35Zm-2.25,0a15.17,15.17,0,0,0-.23-2.67,8.76,8.76,0,0,0-.66-2.18A4.06,4.06,0,0,0,404,307a2.31,2.31,0,0,0-1.5-.53,2.4,2.4,0,0,0-1.54.53,4.07,4.07,0,0,0-1.1,1.46,8.36,8.36,0,0,0-.65,2.18,16.37,16.37,0,0,0,0,5.35,8.36,8.36,0,0,0,.65,2.18,4,4,0,0,0,1.1,1.45,2.35,2.35,0,0,0,1.54.54,2.27,2.27,0,0,0,1.5-.54,4,4,0,0,0,1.09-1.45,8.76,8.76,0,0,0,.66-2.18A15.2,15.2,0,0,0,406,313.35Z"/><path class="cls-1" d="M430.1,318.4a5.57,5.57,0,0,1-.86,2,4.18,4.18,0,0,1-1.55,1.33,5.21,5.21,0,0,1-2.35.48,5.06,5.06,0,0,1-2.33-.48,4.2,4.2,0,0,1-1.53-1.33,5.2,5.2,0,0,1-.84-2,10.69,10.69,0,0,1-.25-2.39V305h2.13v10.79a9.85,9.85,0,0,0,.13,1.65,4.86,4.86,0,0,0,.45,1.41,2.6,2.6,0,0,0,.88,1,2.55,2.55,0,0,0,1.41.37,2.48,2.48,0,0,0,1.39-.37,2.66,2.66,0,0,0,.87-1,4.86,4.86,0,0,0,.45-1.41,11,11,0,0,0,.13-1.65V305h2.13v11A10.68,10.68,0,0,1,430.1,318.4Z"/><path class="cls-1" d="M450.86,317.31a5.55,5.55,0,0,1-.36,2.05,4.42,4.42,0,0,1-.95,1.52,4.16,4.16,0,0,1-1.44.95,4.72,4.72,0,0,1-1.77.33,5.78,5.78,0,0,1-2.43-.53,5,5,0,0,1-1.83-1.41l1.25-1.54a3.77,3.77,0,0,0,1.36,1.11,3.69,3.69,0,0,0,1.65.41,2.34,2.34,0,0,0,1.75-.71,2.85,2.85,0,0,0,.69-2.06,2.81,2.81,0,0,0-.22-1.13,3,3,0,0,0-.59-.87,5,5,0,0,0-.86-.71,9.79,9.79,0,0,0-1.06-.61,11.66,11.66,0,0,1-1.29-.74,5.78,5.78,0,0,1-1.07-1,4.13,4.13,0,0,1-.75-1.29,6,6,0,0,1,.11-3.87,4.34,4.34,0,0,1,1-1.5,4.14,4.14,0,0,1,1.43-.87,4.93,4.93,0,0,1,1.64-.29,5.47,5.47,0,0,1,2.16.41,4,4,0,0,1,1.6,1.2l-1.28,1.52a2.86,2.86,0,0,0-2.41-1.18,2.73,2.73,0,0,0-.89.15,2.16,2.16,0,0,0-.79.5,2.4,2.4,0,0,0-.57.86,3.39,3.39,0,0,0-.21,1.26,2.67,2.67,0,0,0,.2,1.1,3,3,0,0,0,.54.83,4.77,4.77,0,0,0,.8.66,8.17,8.17,0,0,0,1,.55c.44.23.87.47,1.3.75a6,6,0,0,1,1.16,1,4.48,4.48,0,0,1,.84,1.34A4.69,4.69,0,0,1,450.86,317.31Z"/><path class="cls-1" d="M463.17,321.76V305h7.06v1.89h-5v5.28h4.66V314h-4.66v5.89h5.23v1.92Z"/><rect class="cls-1" x="8.67" y="270.43" width="482.16" height="0.5"/></svg>
